<?xml version="1.0" standalone="no"?>
<!DOCTYPE svg PUBLIC "-//W3C//DTD SVG 20010904//EN"
 "http://www.w3.org/TR/2001/REC-SVG-20010904/DTD/svg10.dtd">
<svg version="1.0" xmlns="http://www.w3.org/2000/svg"
 width="700.000000pt" height="700.000000pt" viewBox="0 0 700.000000 700.000000"
 preserveAspectRatio="xMidYMid meet">
<metadata>
Created by potrace 1.14, written by Peter Selinger 2001-2017
</metadata>
<g transform="translate(0.000000,700.000000) scale(0.100000,-0.100000)"
fill="#000000" stroke="none">
<path d="M0 3500 l0 -3500 3500 0 3500 0 0 3500 0 3500 -3500 0 -3500 0 0
-3500z m3830 1506 c120 -23 214 -53 290 -91 l65 -34 -877 -1 -878 0 0 76 0 76
658 -5 c549 -4 671 -8 742 -21z m-1003 -447 c232 -26 399 -123 478 -279 51
-101 68 -190 68 -360 0 -169 -17 -259 -66 -357 -53 -103 -147 -191 -257 -240
-29 -13 -56 -25 -58 -27 -2 -2 87 -194 197 -427 111 -233 201 -427 201 -431 0
-4 -57 -8 -127 -8 l-128 0 -192 408 -191 407 -306 3 -306 2 0 -410 0 -410
-115 0 -115 0 0 1070 0 1070 410 0 c227 0 454 -5 507 -11z m2263 -94 l0 -105
-520 0 -520 0 0 -420 0 -420 440 0 441 0 -3 -102 -3 -103 -437 -3 -438 -2 0
-440 0 -440 -120 0 -120 0 0 1070 0 1070 640 0 640 0 0 -105z m-2320 -2420 l0
-75 -170 0 -170 0 0 75 0 75 170 0 170 0 0 -75z m1755 5 c19 -38 35 -72 35
-75 0 -3 -83 -5 -185 -5 l-185 0 -19 38 c-10 20 -26 54 -34 75 l-16 37 184 0
185 0 35 -70z"/>
<path d="M2140 3911 l0 -451 320 0 c196 0 339 4 372 11 126 27 228 108 267
214 25 68 44 209 36 278 -24 210 -92 310 -254 370 -52 19 -81 21 -398 25
l-343 4 0 -451z"/>
</g>
</svg>
